Coordinates
version=1
nRows=16
nColumns=42
inDegrees=yes

Units are S.I. units (second, meters, Newtons, ...)
If the header above contains a line with 'inDegrees', this indicates whether rotational values are in degrees (yes) or radians (no).

endheader
time	pelvis_tilt	pelvis_list	pelvis_rotation	pelvis_tx	pelvis_ty	pelvis_tz	hip_flexion_r	hip_adduction_r	hip_rotation_r	knee_angle_r	knee_adduction_r	knee_angle_r_beta	ankle_angle_r	subtalar_angle_r	mtp_angle_r	hip_flexion_l	hip_adduction_l	hip_rotation_l	knee_angle_l	knee_adduction_l	knee_angle_l_beta	ankle_angle_l	subtalar_angle_l	mtp_angle_l	lumbar_extension	lumbar_bending	lumbar_rotation	arm_flex_r	arm_add_r	arm_rot_r	elbow_flex_r	pro_sup_r	wrist_flex_r	wrist_dev_r	arm_flex_l	arm_add_l	arm_rot_l	elbow_flex_l	pro_sup_l	wrist_flex_l	wrist_dev_l
      0.42000000	      8.67766529	     -0.08835691	      0.22033640	     -0.40872789	      0.84180509	     -0.29728253	     -7.46146535	      1.44031713	    -13.43415111	     13.09272632	      3.66825896	      0.22851118	     16.86793161	      6.37788568	     -7.93112616	     13.47977499	     -6.44540915	     -6.94749108	     61.29147711	     -0.02983866	      1.06973808	      9.93515649	    -12.30045128	     -7.93112616	    -23.15829503	     -0.52540936	      2.34338336	      4.41394963	    -14.77605219	     -7.43158748	     35.32796582	     90.00000001	      0.00000000	      0.00000000	     -0.44221366	     -9.33635349	    -21.51652303	     39.52437478	     90.00000001	      0.00000000	      0.00000000
      0.43000000	      9.00495632	      0.85752491	     -0.36447869	     -0.39379614	      0.84319000	     -0.29582182	    -10.18477158	      0.47094528	    -12.20439253	     10.69647093	      4.13848061	      0.18668864	     17.21635794	      7.34198197	     -7.91827935	     14.05956432	     -4.88233614	     -7.73700753	     57.97297768	      0.04501796	      1.01181934	     10.77704587	    -12.60373428	     -7.91827935	    -23.42610363	     -1.86569811	      3.13417453	      4.39785871	    -15.10660001	     -6.54546330	     35.98792907	     90.00000001	      0.00000000	      0.00000000	     -0.68456638	     -9.32025519	    -23.37039292	     37.98171028	     90.00000001	      0.00000000	      0.00000000
      0.44000000	      9.32323899	      1.43256142	     -1.04027031	     -0.37909738	      0.84401377	     -0.29407279	    -12.48824749	     -0.13156980	    -11.63541664	      9.02870813	      4.37524025	      0.15758068	     17.05106617	      6.90616085	     -7.89885059	     14.55019955	     -3.91610582	     -8.63572414	     54.41524545	      0.23653904	      0.94972520	     10.44409843	    -13.04664257	     -7.89885059	    -23.71083586	     -2.85700911	      4.00648464	      4.52041692	    -15.57282785	     -5.39679068	     36.62742224	     90.00000001	      0.00000000	      0.00000000	     -1.28606591	     -9.16728423	    -25.56991701	     37.40025632	     90.00000001	      0.00000000	      0.00000000
      0.45000000	      9.26465663	      1.66051364	     -1.53766485	     -0.36471562	      0.84376787	     -0.29231820	    -14.34574806	     -0.30816358	    -10.70691925	      7.37456040	      4.63431530	      0.12871036	     16.65956836	      5.89074093	     -7.85664075	     15.50916090	     -3.41624492	     -9.23805825	     50.87224786	      0.60297319	      0.88788822	     10.32662270	    -13.88488545	     -7.85664075	    -23.58830452	     -3.42382280	      4.85626147	      4.70064644	    -16.06769647	     -4.26798827	     37.12103730	     90.00000001	      0.00000000	      0.00000000	     -1.84175014	     -9.10939247	    -27.55497713	     36.60925053	     90.00000001	      0.00000000	      0.00000000
      0.46000000	      9.26004887	      1.84082148	     -2.05057941	     -0.35012389	      0.84305766	     -0.29065616	    -16.05694331	     -0.49576379	    -10.85813382	      6.17235690	      4.75798288	      0.10772795	     16.84793934	      6.62043506	     -7.83980071	     16.20133338	     -2.98673537	    -10.15637403	     46.99726048	      0.81449260	      0.82025693	     10.44482661	    -14.10488601	     -7.83980071	    -23.49247753	     -3.91392402	      5.75446893	      4.85603756	    -16.46998349	     -3.84781591	     37.70262991	     90.00000001	      0.00000000	      0.00000000	     -2.52732719	     -9.18413006	    -28.83540607	     35.92314636	     90.00000001	      0.00000000	      0.00000000
      0.47000000	      9.20172847	      1.88693185	     -2.57563190	     -0.33556675	      0.84185288	     -0.28908728	    -17.61530135	     -0.59150520	    -11.11732989	      5.15882439	      4.91184046	      0.09003847	     17.08032133	      7.46957087	     -7.82711096	     16.79518372	     -2.75427210	    -11.08838953	     42.92964536	      1.13634590	      0.74926366	     10.63838868	    -14.20281705	     -7.82711096	    -23.33587766	     -4.23607275	      6.68068081	      5.08021260	    -16.94298739	     -3.30912008	     38.15704654	     90.00000001	      0.00000000	      0.00000000	     -3.19872406	     -9.21061793	    -30.25167435	     35.18908999	     90.00000001	      0.00000000	      0.00000000
      0.48000000	      9.15145491	      1.96909421	     -3.01880513	     -0.32094642	      0.84029636	     -0.28777730	    -19.06055605	     -0.76874009	    -11.78579159	      4.44500229	      5.11034847	      0.07757993	     17.37510601	      8.27792768	     -7.80118358	     17.19594976	     -2.41701588	    -11.99669399	     38.59404379	      1.44302972	      0.67359314	     10.59834044	    -14.24641663	     -7.80118358	    -23.19306900	     -4.55390054	      7.38681854	      5.40075433	    -17.46846952	     -2.40633455	     38.58063068	     90.00000001	      0.00000000	      0.00000000	     -3.86155448	     -9.14154957	    -32.50499073	     34.57652865	     90.00000001	      0.00000000	      0.00000000
      0.49000000	      9.10373468	      1.87163740	     -3.39601999	     -0.30620616	      0.83834423	     -0.28655442	    -20.49543144	     -0.71828443	    -12.51173650	      3.80051202	      5.25549747	      0.06633145	     17.71198494	      9.18672350	     -7.78654870	     17.45857910	     -2.31351747	    -12.92249978	     34.22511480	      1.82847955	      0.59734094	     10.94437007	    -13.39766260	     -7.78654870	    -23.04274395	     -4.64515234	      8.13324309	      5.69026942	    -17.96802015	     -1.91035003	     38.97395359	     90.00000001	      0.00000000	      0.00000000	     -4.63220157	     -9.16712056	    -33.96610014	     34.02561826	     90.00000001	      0.00000000	      0.00000000
      0.50000000	      8.97655423	      1.60989826	     -3.79853014	     -0.29155734	      0.83602900	     -0.28524767	    -21.72135704	     -0.47440009	    -13.13647480	      3.38222090	      5.30671860	      0.05903089	     18.07838490	     10.10949620	     -7.77563953	     17.64381568	     -2.48124775	    -13.65701601	     29.84013969	      2.48626512	      0.52080869	     11.36604070	    -11.99678862	     -7.77563953	    -22.82518488	     -4.57190072	      8.91342305	      6.07932632	    -18.45920810	     -1.42099415	     39.21846794	     90.00000001	      0.00000000	      0.00000000	     -5.41532146	     -9.19217291	    -35.34577409	     33.44443875	     90.00000001	      0.00000000	      0.00000000
      0.51000000	      8.94078854	      1.52423220	     -4.14822744	     -0.27659631	      0.83355264	     -0.28434697	    -22.99606052	     -0.55556488	    -14.12533286	      3.19057316	      5.52081145	      0.05568601	     18.52783175	     11.24513466	     -7.75882560	     17.55867885	     -2.30318884	    -14.55548178	     25.37862902	      2.92980852	      0.44294064	     11.58652357	    -10.15854262	     -7.75882560	    -22.67365287	     -4.64279819	      9.46438916	      6.47229898	    -18.98492221	     -0.65276684	     39.50322544	     90.00000001	      0.00000000	      0.00000000	     -6.15384525	     -9.10827102	    -37.57984466	     32.97246767	     90.00000001	      0.00000000	      0.00000000
      0.52000000	      8.85603239	      1.19067137	     -4.50096476	     -0.26172541	      0.83083978	     -0.28324710	    -24.15296271	     -0.29433965	    -14.78252707	      3.08158159	      5.52258354	      0.05378374	     18.90587451	     12.19100611	     -7.74713103	     17.44125777	     -2.51733133	    -15.12241667	     21.19424575	      3.66602759	      0.36990937	     12.07629724	     -7.88603615	     -7.74713103	    -22.50550760	     -4.45732814	     10.08116616	      6.93504295	    -19.44386618	     -0.18295545	     39.67437331	     90.00000001	      0.00000000	      0.00000000	     -6.96363686	     -9.10673173	    -39.08554889	     32.45038683	     90.00000001	      0.00000000	      0.00000000
      0.53000000	      8.76573535	      0.78398227	     -4.84051897	     -0.24677840	      0.82802913	     -0.28219145	    -25.24709613	     -0.00282060	    -15.16777447	      3.11463910	      5.50685638	      0.05436071	     19.24238722	     13.01512649	     -7.73830610	     17.28178503	     -2.82860451	    -15.61218882	     17.35873200	      4.40216941	      0.30296703	     12.41337883	     -5.36745534	     -7.73830610	    -22.33700340	     -4.19378566	     10.65786358	      7.40891730	    -19.86893204	      0.21258723	     39.79348240	     90.00000001	      0.00000000	      0.00000000	     -7.80303714	     -9.11196500	    -40.45278951	     31.95013792	     90.00000001	      0.00000000	      0.00000000
      0.54000000	      8.70458428	      0.57334578	     -5.24139714	     -0.23156062	      0.82517105	     -0.28132787	    -26.22258554	     -0.07136232	    -15.92682353	      3.49491996	      5.51156958	      0.06099786	     19.69091823	     14.38239782	     -7.71310407	     17.17350248	     -2.86942581	    -16.59422364	     14.15841558	      4.79939606	      0.24711097	     12.71640328	     -2.37933469	     -7.71310407	    -22.16026859	     -4.14541648	     11.12359278	      7.85561791	    -20.33500707	      0.99551222	     39.95578714	     90.00000001	      0.00000000	      0.00000000	     -8.38516811	     -8.95076746	    -43.34704768	     31.35400581	     90.00000001	      0.00000000	      0.00000000
      0.55000000	      8.58709641	      0.15177431	     -5.61474752	     -0.21655130	      0.82238171	     -0.28019932	    -27.14610378	      0.18528009	    -15.81301269	      3.75358040	      5.30817356	      0.06551234	     19.78711649	     14.86995305	     -7.70819829	     17.14081401	     -3.24122898	    -16.87238300	     11.54969073	      5.38472834	      0.20158013	     12.73154806	     -0.36991687	     -7.70819829	    -21.98795730	     -3.88822859	     11.65650253	      8.32026224	    -20.61539542	      1.08887434	     40.00036159	     90.00000001	      0.00000000	      0.00000000	     -9.25166241	     -9.01344054	    -44.07987176	     30.90251970	     90.00000001	      0.00000000	      0.00000000
      0.56000000	      8.54046314	     -0.07506894	     -6.06893502	     -0.20128539	      0.81979786	     -0.27929209	    -28.06218415	      0.04215581	    -15.65304930	      4.21434483	      5.21338196	      0.07355419	     19.74800345	     15.25475208	     -7.70426015	     17.08190727	     -3.36497953	    -17.20764067	      9.63572021	      5.75419246	      0.16817504	     12.77145523	      1.25229831	     -7.70426015	    -21.86930507	     -3.84909552	     12.10951339	      8.74534834	    -20.86687136	      1.22317086	     40.07155284	     90.00000001	      0.00000000	      0.00000000	    -10.05474303	     -9.03896255	    -45.14308273	     30.39152864	     90.00000001	      0.00000000	      0.00000000
      0.57000000	      8.50377242	     -0.07727904	     -6.54642103	     -0.18591171	      0.81735833	     -0.27867107	    -28.57921618	     -0.59628658	    -16.48953731	      5.54247184	      5.22038440	      0.09673438	     20.09748718	     16.93820648	     -7.68596677	     17.33250861	     -3.23348186	    -18.05365494	      8.92245148	      5.75752322	      0.15572616	     13.11625160	      3.02382211	     -7.68596677	    -21.73262954	     -4.03935328	     12.39236215	      9.16296895	    -21.10387513	      1.62266986	     40.21389370	     90.00000001	      0.00000000	      0.00000000	    -10.27404622	     -8.86619889	    -48.86061554	     29.49234571	     90.00000001	      0.00000000	      0.00000000
